<?xml version="1.0" encoding="utf-8"?>
<!-- Generator: Adobe Illustrator 23.0.0, SVG Export Plug-In . SVG Version: 6.00 Build 0)  -->
<svg version="1.1" id="Layer_1" xmlns="http://www.w3.org/2000/svg" xmlns:xlink="http://www.w3.org/1999/xlink" x="0px" y="0px"
	 viewBox="0 0 196 46.8" style="enable-background:new 0 0 196 46.8;" xml:space="preserve">
<style type="text/css">
	.st0{fill:#748CFF;}
	.st1{fill:#FFFFFF;stroke:#748CFF;stroke-miterlimit:10;}
	.st2{fill:#FFFFFF;stroke:#FFFFFF;stroke-miterlimit:10;}
	.st3{fill:#FFFFFF;}
</style>
<g>
	<path class="st0" d="M190.6,20.6c1.3-3.2,0.9-6.4,0.8-9.7c-0.1-3.4,0.3-6.6,1.1-9.8c-2.3,3.6-4.6,4.8-6.3,5.3
		C180,7.9,173.9,1,165.9,1.1c-2.7,0-5.2,0.8-5.2,0.8c-1.7,0.5-3.3,1.3-4.9,2.3c-1.3,0.8-2.4,1.7-3.5,2.7c-3-3.6-6.1-5.8-11.2-5.8
		H61.6L59,8.9l-1.3-7.8H40.3l-0.6,1.4L38,1.9c-9.1-3.2-17.9-2.1-26.2,3C3.2,10.2-0.9,18.6,0.2,29.1C0.8,35.4,4.8,41,10.8,44.2
		c4.4,2.2,9.3,2.9,14.2,2.1h15.5l3.8-8.5l1.5,8.5l92.9-0.1c4.1,0,8.4-2.1,11.6-5.2c2.4,2.6,5.6,4.6,9.2,5.4
		c4.7,1.1,9.7,0.2,14.1-2.5c0.2-0.1,0.4-0.3,0.6-0.4l-0.4,2.7h11.5c1.4-4.1,2.6-8.3,3.6-12.5c0.6-2.9,1.2-6.1,2-9.1
		C190.1,23.5,190,22.2,190.6,20.6z"/>
	<path class="st1" d="M43.8,23.7l2.9-6.5l1.3,6.5H43.8 M83.7,6.8l-7.8,18.3L72.6,6.8h-6.8l-8.8,27l-4.5-27h-8.4l-12.8,29l1.9-12.1
		H20.5l-1,6.2h5.3l-0.6,3.3c-3,1.3-8.2,0.9-10.4-3.1c-1.4-2.5-2.7-8.1,3.2-13.2c4.8-4.2,13.1-4.9,17.9-2.7c0,0,0.6-3.5,1.1-6.8
		c-9.2-3.2-16.4-0.5-21.2,2.4C8.3,13.8,5.2,20,6,28.4c1,9.7,13.5,15.8,24.2,9.7c0.1-0.1,0.2-0.1,0.2-0.1l-1,2.3h7.2l4.5-10H49
		l1.7,10h11.6l5.9-18.6L72,40.3h4.6l8.9-20.6l0.9,20.6h6.8L91.9,6.8H83.7"/>
	<polyline class="st1" points="93.9,40.2 113,40.2 114.1,33 102.1,33 103.1,27.1 113.5,27.1 114.6,19.9 104.1,19.9 105,14 117,14 
		118.1,6.8 99.2,6.8 93.9,40.2 	"/>
	<path class="st2" d="M171.1,26.7c-1.8,5.5-6.3,8.7-9.9,7.1c-3.6-1.6-5-7.4-3.2-13c1.8-5.5,6.3-8.7,9.9-7.1
		C171.6,15.4,173,21.2,171.1,26.7 M168.5,7.1c-7.6-1.7-15.5,4.3-17.6,13.5s2.3,18.1,9.9,19.9c7.6,1.8,15.5-4.3,17.6-13.5
		S176,8.9,168.5,7.1"/>
	<path class="st3" d="M138.1,20.2c-3.8,0-4.8,0-4.8,0l1.1-6.2c0,0,0.1,0,4.4,0C143.7,14,142.8,20.2,138.1,20.2 M137.3,33.7
		c-3.8,0-6,0-6,0l1.1-6.6c0,0,1.4,0,5.7,0C143.5,27,143.4,33.7,137.3,33.7 M141.3,7c-3.7-0.1-12.8,0-12.8,0h0.1l-5.3,33.1
		c0,0,10.9,0,15.4,0c6.3,0,15.6-9.3,7.2-17C154.5,14.1,145.9,7.1,141.3,7"/>
	<g>
		<polygon class="st3" points="185.9,40.8 178.9,40.8 182.3,16.2 189.3,16.2 		"/>
		<polygon class="st3" points="183,12.2 189.8,12.2 190.5,6.8 183.8,6.8 		"/>
	</g>
	<polygon class="st0" points="196,1.1 192,1.1 185,46.2 189,46.1 	"/>
	<path class="st0" d="M187.8,42.7"/>
	<polygon class="st0" points="179.7,6.8 192,6.8 192,1.1 180.8,1.1 	"/>
	<path class="st0" d="M185.4,3.2"/>
</g>
<g id="Background">
</g>
</svg>
