<?xml version="1.0" encoding="utf-8"?>
<!-- Generator: Adobe Illustrator 23.0.0, SVG Export Plug-In . SVG Version: 6.00 Build 0)  -->
<svg version="1.1" id="Layer_1" xmlns="http://www.w3.org/2000/svg" xmlns:xlink="http://www.w3.org/1999/xlink" x="0px" y="0px"
	 viewBox="0 0 195.99 46.8" style="enable-background:new 0 0 195.99 46.8;" xml:space="preserve">
<style type="text/css">
	.st0{fill:#1F00CC;}
	.st1{fill:#FFFFFF;}
</style>
<path class="st0" d="M190.62,20.55c1.3-3.16,0.91-6.38,0.83-9.71c-0.08-3.36,0.29-6.6,1.12-9.84c-2.29,3.62-4.62,4.83-6.34,5.25
	C179.98,7.79,173.9,0.94,165.9,1c-2.73,0.02-5.2,0.75-5.2,0.75C159,2.25,157.35,3,155.8,4c-1.3,0.8-2.4,1.7-3.5,2.7
	c-3-3.6-6.1-5.8-11.2-5.8H61.6L59,8.8L57.7,1H40.3l-0.6,1.4L38,1.8c-9.1-3.2-17.9-2.1-26.2,3C3.2,10.1-0.9,18.5,0.2,29
	c0.6,6.3,4.6,11.9,10.6,15.1c4.4,2.2,9.3,2.9,14.2,2.1h15.5l3.8-8.5l1.5,8.5l92.9-0.1c4.1,0,8.4-2.1,11.6-5.2
	c2.4,2.6,5.6,4.6,9.2,5.4c4.7,1.1,9.7,0.2,14.1-2.5c0.2-0.1,0.4-0.3,0.6-0.4l-0.4,2.7h11.48c1.35-4.14,2.64-8.31,3.55-12.55
	c0.63-2.93,1.22-6.07,2-9.13C190.17,23.41,189.98,22.09,190.62,20.55z"/>
<path class="st1" d="M43.8,23.6l2.9-6.5l1.3,6.5H43.8 M83.7,6.7L75.9,25L72.6,6.7h-6.8l-8.8,27l-4.5-27h-8.4l-12.8,29l1.9-12.1H20.5
	l-1,6.2h5.3l-0.6,3.3c-3,1.3-8.2,0.9-10.4-3.1c-1.4-2.5-2.7-8.1,3.2-13.2c4.8-4.2,13.1-4.9,17.9-2.7c0,0,0.6-3.5,1.1-6.8
	c-9.2-3.2-16.4-0.5-21.2,2.4c-6.5,4-9.6,10.2-8.8,18.6C7,38,19.5,44.1,30.2,38c0.1-0.1,0.2-0.1,0.2-0.1l-1,2.3h7.2l4.5-10H49l1.7,10
	h11.6l5.9-18.6L72,40.2h4.6l8.9-20.6l0.9,20.6h6.8L91.9,6.7H83.7"/>
<polyline class="st1" points="93.9,40.1 113,40.1 114.1,32.9 102.1,32.9 103.1,27 113.5,27 114.6,19.8 104.1,19.8 105,13.9 
	117,13.9 118.1,6.7 99.2,6.7 93.9,40.1 "/>
<path class="st1" d="M171.1,26.6c-1.8,5.5-6.3,8.7-9.9,7.1c-3.6-1.6-5-7.4-3.2-13c1.8-5.5,6.3-8.7,9.9-7.1
	C171.6,15.3,173,21.1,171.1,26.6 M168.5,7c-7.6-1.7-15.5,4.3-17.6,13.5s2.3,18.1,9.9,19.9c7.6,1.8,15.5-4.3,17.6-13.5
	S176,8.8,168.5,7"/>
<path class="st1" d="M138.1,20.1c-3.8,0-4.8,0-4.8,0l1.1-6.2c0,0,0.1,0,4.4,0C143.7,13.9,142.8,20.1,138.1,20.1 M137.3,33.6
	c-3.8,0-6,0-6,0l1.1-6.6c0,0,1.4,0,5.7,0C143.5,26.9,143.4,33.6,137.3,33.6 M141.3,6.9c-3.7-0.1-12.8,0-12.8,0h0.1L123.3,40
	c0,0,10.9,0,15.4,0c6.3,0,15.6-9.3,7.2-17C154.5,14,145.9,7,141.3,6.9"/>
<g>
	<polygon class="st1" points="185.89,40.67 178.92,40.72 182.3,16.14 189.28,16.07 	"/>
	<polygon class="st1" points="183.03,12.12 189.78,12.12 190.5,6.7 183.84,6.7 	"/>
</g>
<polygon class="st0" points="195.99,1.01 191.99,0.99 185.05,46.1 189.07,46.04 "/>
<path class="st0" d="M187.78,42.56"/>
<polygon class="st0" points="179.72,6.7 191.99,6.7 191.99,0.99 180.79,0.99 "/>
<path class="st0" d="M185.46,3.06"/>
</svg>
